# xmcd
#
# Track frame offsets: 
#        150
#        13657
#        32260
#        46677
#        65105
#        85352
#        107535
#        128282
#        146790
#        164157
#        186980
#        201940
#        223330
#        247015
#        273827
#        284612
#        303312
#
# Disc length: 4261 seconds
#
# Revision: 4
# Processed by: cddbd v1.5.2PL0 Copyright (c) Steve Scherf et al.
# Submitted via: ExactAudioCopyFreeDBPlugin 1.0
#
DISCID=0010a311
DTITLE=Various Artist - ALR JORDAN-VOICES THE COLLECTION
DYEAR=1997
DGENRE=AudioPhile
TTITLE0=Cheryl Wheeler - Mrs. Pinocci's Guitar
TTITLE1=Rebecca Pidgeon - Auld Lang Syne - Bring It In Home To Me
TTITLE2=Christy Baron - Got To Get You Into My Life
TTITLE3=Carrie Newcomer - Up In The Attic
TTITLE4=Mary Stallings - Sunny
TTITLE5=Mary O'Regan - The Blacksmith
TTITLE6=The Hot Club Of Sun Francisco - At Sundown
TTITLE7=Sara K. - Vincent
TTITLE8=Alison Krauss - Baby, Now That I've Found You
TTITLE9=Kristin Korb, with The Ray Brown Trio - Take The“A”Train
TTITLE10=Bucky And John Pizzarelli - Route 66
TTITLE11=Geraldine Mac Gowan - She Moved Through The Fair
TTITLE12=Jeremy Davenport - Was It Something I Did?
TTITLE13=A La Carte Brass and Percussion - Papa Was A Rolling Stone
TTITLE14=Lou Dalgleish - Special
TTITLE15=Toss The Feathers - New Day (Reprise)
TTITLE16=Jocelyn B. Smith - It's Alright
EXTD=
EXTT0=
EXTT1=
EXTT2=
EXTT3=
EXTT4=
EXTT5=
EXTT6=
EXTT7=
EXTT8=
EXTT9=
EXTT10=
EXTT11=
EXTT12=
EXTT13=
EXTT14=
EXTT15=
EXTT16=
PLAYORDER=
